<svg xmlns="http://www.w3.org/2000/svg" viewBox="0 0 108 108"><rect width="108" height="108" rx="24" fill="#BCF25C"/><path d="M77.730,54.000L77.615,54.825L77.277,55.628L76.742,56.390L76.048,57.099L75.246,57.746L74.392,58.334L73.544,58.873L72.757,59.379L72.078,59.874L71.541,60.385L71.168,60.936L70.962,61.552L70.911,62.248L70.990,63.034L71.160,63.907L71.375,64.857L71.585,65.861L71.739,66.888L71.793,67.902L71.711,68.861L71.467,69.728L71.052,70.467L70.467,71.052L69.728,71.467L68.861,71.711L67.902,71.793L66.888,71.739L65.861,71.585L64.857,71.375L63.907,71.160L63.034,70.990L62.248,70.911L61.552,70.962L60.936,71.168L60.385,71.541L59.874,72.078L59.379,72.757L58.873,73.544L58.334,74.392L57.746,75.246L57.099,76.048L56.390,76.742L55.628,77.277L54.825,77.615L54.000,77.730L53.175,77.615L52.372,77.277L51.610,76.742L50.901,76.048L50.254,75.246L49.666,74.392L49.127,73.544L48.621,72.757L48.126,72.078L47.615,71.541L47.064,71.168L46.448,70.962L45.752,70.911L44.966,70.990L44.093,71.160L43.143,71.375L42.139,71.585L41.112,71.739L40.098,71.793L39.139,71.711L38.272,71.467L37.533,71.052L36.948,70.467L36.533,69.728L36.289,68.861L36.207,67.902L36.261,66.888L36.415,65.861L36.625,64.857L36.840,63.907L37.010,63.034L37.089,62.248L37.038,61.552L36.832,60.936L36.459,60.385L35.922,59.874L35.243,59.379L34.456,58.873L33.608,58.334L32.754,57.746L31.952,57.099L31.258,56.390L30.723,55.628L30.385,54.825L30.270,54.000L30.385,53.175L30.723,52.372L31.258,51.610L31.952,50.901L32.754,50.254L33.608,49.666L34.456,49.127L35.243,48.621L35.922,48.126L36.459,47.615L36.832,47.064L37.038,46.448L37.089,45.752L37.010,44.966L36.840,44.093L36.625,43.143L36.415,42.139L36.261,41.112L36.207,40.098L36.289,39.139L36.533,38.272L36.948,37.533L37.533,36.948L38.272,36.533L39.139,36.289L40.098,36.207L41.112,36.261L42.139,36.415L43.143,36.625L44.093,36.840L44.966,37.010L45.752,37.089L46.448,37.038L47.064,36.832L47.615,36.459L48.126,35.922L48.621,35.243L49.127,34.456L49.666,33.608L50.254,32.754L50.901,31.952L51.610,31.258L52.372,30.723L53.175,30.385L54.000,30.270L54.825,30.385L55.628,30.723L56.390,31.258L57.099,31.952L57.746,32.754L58.334,33.608L58.873,34.456L59.379,35.243L59.874,35.922L60.385,36.459L60.936,36.832L61.552,37.038L62.248,37.089L63.034,37.010L63.907,36.840L64.857,36.625L65.861,36.415L66.888,36.261L67.902,36.207L68.861,36.289L69.728,36.533L70.467,36.948L71.052,37.533L71.467,38.272L71.711,39.139L71.793,40.098L71.739,41.112L71.585,42.139L71.375,43.143L71.160,44.093L70.990,44.966L70.911,45.752L70.962,46.448L71.168,47.064L71.541,47.615L72.078,48.126L72.757,48.621L73.544,49.127L74.392,49.666L75.246,50.254L76.048,50.901L76.742,51.610L77.277,52.372L77.615,53.175L77.730,54.000Z" fill="#1B2600"/><g transform="translate(44.0859 44.0859) scale(0.826172)"><path d="M16,22c1.1,0,2-0.9,2-2l-0.01-3.18c0-0.53-0.21-1.03-0.58-1.41L14,12l3.41-3.43c0.37-0.37,0.58-0.88,0.58-1.41L18,4c0-1.1-0.9-2-2-2H8C6.9,2,6,2.9,6,4v3.16C6,7.69,6.21,8.2,6.58,8.58L10,12l-3.41,3.4C6.21,15.78,6,16.29,6,16.82V20c0,1.1,0.9,2,2,2H16z M8,7.09V5c0-0.55,0.45-1,1-1h6c0.55,0,1,0.45,1,1v2.09c0,0.27-0.11,0.52-0.29,0.71L12,11.5L8.29,7.79C8.11,7.61,8,7.35,8,7.09z" fill="#BCF25C"/></g></svg>